<svg width="141.732" height="141.732" xmlns="http://www.w3.org/2000/svg"><path fill="none" d="M-1-1h143.732v143.732H-1z"/><g><path d="M62.762 104.362c0-.562.448-1.013 1.008-1.013h14.525c.56 0 1.012.45 1.012 1.013 0 .561-.451 1.014-1.012 1.014H63.77a1.01 1.01 0 0 1-1.008-1.014m58.408-6.443H20.482V30.474H121.17V97.92zm20.02 6.94c0-1.5-1.212-2.717-2.706-2.717v-.193H124.12a2.106 2.106 0 0 0 1.246-1.923V28.362a2.102 2.102 0 0 0-2.1-2.107H18.383a2.104 2.104 0 0 0-2.097 2.107v71.663a2.11 2.11 0 0 0 1.245 1.923H3.58v.188c-1.494 0-2.706 1.217-2.706 2.72s1.212 2.72 2.706 2.72h134.903a2.713 2.713 0 0 0 2.707-2.718"/><g stroke="null"><g fill="red"><path d="M65.672 61.179c.327-.282.487-.696.487-1.267 0-.563-.163-.995-.497-1.322-.331-.322-.838-.486-1.505-.486h-2.169v3.506h2.123c.703 0 1.228-.145 1.56-.431z" stroke-width=".13625"/><path d="M41.848 44.322v38.766h56.544V44.322H41.848zm9.63 23.573a4.513 4.513 0 1 1 0-9.026 4.513 4.513 0 0 1 0 9.026zm18.543 1.54h-3.055l-.056-.045c-.286-.228-.473-.604-.554-1.115a8.56 8.56 0 0 1-.114-1.343v-.951c0-.612-.165-1.09-.49-1.422-.33-.334-.788-.497-1.401-.497h-2.362v5.373h-3.105V55.584h5.273c1.573 0 2.826.368 3.724 1.093.911.736 1.373 1.773 1.373 3.081 0 .737-.196 1.38-.583 1.912-.303.414-.718.769-1.239 1.058.604.254 1.06.62 1.361 1.094.368.578.554 1.299.554 2.14v.988c0 .357.05.737.146 1.128.09.363.242.632.451.8l.077.06v.497h0zm10.977 0h-9.614V55.584h9.595v2.486h-6.49v2.97h5.567v2.486h-5.567v3.423h6.509v2.486h0zm11.835-9.042l-.075.225h-2.973v-.204c0-.83-.197-1.47-.585-1.9-.382-.423-.999-.638-1.833-.638-.744 0-1.318.293-1.755.898-.446.616-.672 1.418-.672 2.384v2.684c0 .977.238 1.784.706 2.4.462.606 1.07.9 1.86.9.778 0 1.356-.205 1.717-.61.366-.411.553-1.044.553-1.881v-.204h2.964l.075.224v.032c.026 1.5-.442 2.71-1.39 3.596-.942.882-2.26 1.33-3.92 1.33-1.668 0-3.044-.546-4.088-1.623-1.043-1.074-1.572-2.473-1.572-4.158V61.18c0-1.678.516-3.076 1.533-4.157 1.02-1.084 2.362-1.633 3.99-1.633 1.706 0 3.063.448 4.033 1.332.976.89 1.458 2.114 1.433 3.64v.031z" stroke-width=".13625"/></g></g></g></svg>